PathFileType	4	(x/y/z)	Passive_Pref0001.trc
DataRate	CameraRate	NumFrames	NumMarkers	Units	OrigDataRate	OrigDataStartFrame	OrigNumFrames
240	240	10	50	mm	240	39	311
Frame#	Time	R_AC			L_AC			HEAD			STERN			C7			L_IC			R_IC			L_ASIS			R_ASIS			L_GT			R_GT			R_PSIS			L_PSIS			SACRAL			L_LAT_KNEE			L_MED_KNEE			R_LAT_KNEE			R_MED_KNEE			L_LAT_ANK			L_MED_ANK			R_LAT_ANK			R_MED_ANK			L_THIGH_PROX_POST			L_THIGH_PROX_ANT			L_THIGH_DIST_ANT			L_THIGH_DIST_POST			R_THIGH_PROX_POST			R_THIGH_PROX_ANT			R_THIGH_DIST_ANT			R_THIGH_DIST_POST			L_SHANK_PROX_POST			L_SHANK_PROX_ANT			L_SHANK_DIST_ANT			L_SHANK_DIST_POST			R_SHANK_PROX_POST			R_SHANK_PROX_ANT			R_SHANK_DIST_ANT			R_SHANK_DIST_POST			L_HEEL_LAT			L_HEEL_SUP			L_HEEL_MED			R_HEEL_LAT			R_HEEL_SUP			R_HEEL_MED			L_1ST_MET			L_5TH_MET			L_TOE			R_1ST_MET			R_5TH_MET			R_TOE			
		X1	Y1	Z1	X2	Y2	Z2	X3	Y3	Z3	X4	Y4	Z4	X5	Y5	Z5	X6	Y6	Z6	X7	Y7	Z7	X8	Y8	Z8	X9	Y9	Z9	X10	Y10	Z10	X11	Y11	Z11	X12	Y12	Z12	X13	Y13	Z13	X14	Y14	Z14	X15	Y15	Z15	X16	Y16	Z16	X17	Y17	Z17	X18	Y18	Z18	X19	Y19	Z19	X20	Y20	Z20	X21	Y21	Z21	X22	Y22	Z22	X23	Y23	Z23	X24	Y24	Z24	X25	Y25	Z25	X26	Y26	Z26	X27	Y27	Z27	X28	Y28	Z28	X29	Y29	Z29	X30	Y30	Z30	X31	Y31	Z31	X32	Y32	Z32	X33	Y33	Z33	X34	Y34	Z34	X35	Y35	Z35	X36	Y36	Z36	X37	Y37	Z37	X38	Y38	Z38	X39	Y39	Z39	X40	Y40	Z40	X41	Y41	Z41	X42	Y42	Z42	X43	Y43	Z43	X44	Y44	Z44	X45	Y45	Z45	X46	Y46	Z46	X47	Y47	Z47	X48	Y48	Z48	X49	Y49	Z49	X50	Y50	Z50	

39	0.15884	-566.88	1504.9	415.87	-590.72	1515.3	12.921	-529.44	1823.5	236.39	-487.98	1456.3	221.04	-641.23	1549.4	222.9	-604.53	1092.8	71.121	-591.47	1104.4	406.24	-531.1	1012.9	106.42	-530.19	1001.9	376.69	-627.29	930.15	54.134	-649.36	930.69	418.54	-745.61	1018.2	279.04	-751.1	1015.8	193.2	-760.4	983.9	235.43	-486.61	549.31	93.75	-467.6	564.71	230.91	-715.85	523.7	404.36	-698.29	513.48	267.87	-451.07	111.22	116.54	-461.98	112.32	201.12	-1072.8	225.16	352.63	-1024.6	222.9	257.46	-549.2	771.17	61.984	-487.87	787.33	90.556	-470.91	717.4	101.49	-526.03	699.7	75.211	-710.78	795.57	395.71	-653.05	789.87	422.61	-669.36	716.27	416.65	-718.54	722.16	391	-474.05	495.67	106.47	-426.21	532.41	119.72	-413.75	466.72	133.54	-459.32	435.36	110.37	-860.72	442.92	405.43	-820.2	401.16	404.56	-876.51	351.14	390.9	-916.65	389.82	390.07	-501.3	43.304	114.07	-524.39	70.196	144.09	-516.79	41.794	182.78	-1140.9	271.4	308.64	-1109.8	286.31	280.05	-1117	254.96	250.27	-296.95	54.908	233.5	-303	51.036	119.07	-247.45	83.035	203.22	-1018.4	69.156	255.75	-1069.6	81.786	365.53	-992.89	33.442	312.85
40	0.16302	-561.23	1506	415.42	-584.8	1516.3	12.541	-523.85	1824.4	235.75	-482.46	1457.2	220.67	-635.65	1550.4	222.45	-599.31	1093.7	70.926	-586.28	1105.2	406.08	-525.91	1013.8	106.01	-524.7	1002.9	376.24	-622.34	931.18	53.951	-643.16	931.04	418.33	-740.33	1018.8	279.09	-745.69	1016.6	193.29	-755.03	984.61	235.41	-483.38	549.58	93.078	-464.14	565.02	230.19	-704.71	523.06	404.69	-687.06	512.86	268.08	-450.65	111.21	116.48	-461.45	112.41	200.93	-1064.6	229.05	353.22	-1016.3	225.76	258.19	-544.88	771.99	61.631	-483.28	787.79	89.943	-466.63	717.77	100.81	-521.98	700.36	74.679	-703	794.79	396.03	-645.08	789.76	422.65	-660.56	715.98	416.79	-709.96	721.29	391.42	-471.14	495.86	105.85	-423.06	532.32	119.01	-411	466.57	132.88	-456.79	435.47	109.82	-849.83	443.96	405.9	-809.8	401.72	404.94	-866.71	352.33	391.29	-906.39	391.46	390.47	-501.2	43.462	114.08	-524.26	70.407	144.09	-516.64	41.989	182.8	-1131.9	276.56	308.97	-1100.3	290.82	280.47	-1108.2	259.46	250.79	-296.65	54.365	233.28	-302.83	50.35	118.89	-247.05	82.215	202.94	-1012.7	71.612	257.22	-1064.2	85.438	366.35	-988.39	34.273	314.37
41	0.1672	-555.63	1507.1	415	-578.89	1517.4	12.187	-518.25	1825.3	235.13	-476.97	1458	220.34	-630.09	1551.5	222.02	-594.09	1094.7	70.734	-581.17	1106.1	405.93	-520.76	1014.8	105.63	-519.26	1003.9	375.82	-617.39	932.2	53.772	-637.02	931.44	418.13	-735.1	1019.4	279.11	-740.34	1017.5	193.35	-749.7	985.33	235.35	-480.24	549.84	92.458	-460.8	565.31	229.52	-693.51	522.53	404.99	-675.78	512.35	268.25	-450.25	111.2	116.44	-460.94	112.51	200.76	-1056.1	232.9	353.76	-1007.7	228.59	258.86	-540.62	772.82	61.349	-478.75	788.22	89.417	-462.42	718.13	100.22	-517.96	701.02	74.186	-695.21	794.08	396.35	-637.11	789.72	422.69	-651.76	715.78	416.91	-701.35	720.49	391.82	-468.32	496.06	105.28	-419.99	532.24	118.35	-408.33	466.42	132.28	-454.34	435.59	109.31	-838.84	445.06	406.3	-799.3	402.37	405.28	-856.76	353.57	391.65	-896	393.14	390.81	-501.09	43.62	114.09	-524.13	70.608	144.09	-516.49	42.175	182.82	-1122.8	281.52	309.23	-1090.8	295.13	280.81	-1099.2	263.75	251.26	-296.38	53.86	233.09	-302.68	49.716	118.72	-246.67	81.448	202.68	-1006.6	74.096	258.75	-1058.2	89.151	367.27	-983.32	35.36	315.98
42	0.17138	-550.1	1508.2	414.61	-572.99	1518.4	11.859	-512.64	1826.3	234.51	-471.52	1458.9	220.04	-624.55	1552.5	221.61	-588.89	1095.7	70.544	-576.12	1107	405.8	-515.62	1015.7	105.3	-513.88	1005	375.43	-612.44	933.22	53.602	-630.92	931.88	417.95	-729.91	1019.9	279.1	-735.04	1018.4	193.36	-744.42	986.05	235.25	-477.18	550.1	91.889	-457.56	565.59	228.91	-682.28	522.11	405.26	-664.45	511.97	268.4	-449.86	111.21	116.42	-460.47	112.61	200.6	-1047.4	236.7	354.25	-998.98	231.38	259.49	-536.42	773.66	61.134	-474.28	788.64	88.977	-458.27	718.47	99.697	-513.98	701.68	73.733	-687.42	793.43	396.64	-629.16	789.75	422.72	-642.95	715.65	417.03	-692.72	719.76	392.19	-465.57	496.25	104.76	-417.01	532.15	117.75	-405.74	466.29	131.73	-451.95	435.71	108.84	-827.77	446.22	406.63	-788.69	403.09	405.59	-846.69	354.87	391.98	-885.5	394.85	391.11	-500.99	43.777	114.1	-523.98	70.801	144.1	-516.35	42.352	182.84	-1113.4	286.25	309.44	-1081.1	299.24	281.05	-1090	267.81	251.65	-296.12	53.389	232.91	-302.53	49.133	118.58	-246.31	80.73	202.45	-1000	76.595	260.34	-1051.6	92.9	368.29	-977.65	36.7	317.67
43	0.17556	-544.64	1509.2	414.26	-567.1	1519.5	11.556	-507.02	1827.2	233.91	-466.11	1459.7	219.77	-619.03	1553.6	221.22	-583.69	1096.6	70.356	-571.14	1107.9	405.68	-510.51	1016.6	105.01	-508.55	1006.1	375.08	-607.49	934.23	53.441	-624.89	932.36	417.79	-724.76	1020.5	279.05	-729.8	1019.3	193.34	-739.19	986.79	235.12	-474.21	550.35	91.371	-454.42	565.86	228.34	-671.02	521.8	405.51	-653.11	511.72	268.52	-449.5	111.23	116.41	-460.02	112.71	200.46	-1038.5	240.44	354.7	-990.01	234.12	260.06	-532.28	774.51	60.974	-469.87	789.04	88.618	-454.18	718.79	99.251	-510.03	702.32	73.322	-679.62	792.85	396.92	-621.24	789.86	422.76	-634.14	715.61	417.13	-684.09	719.11	392.53	-462.9	496.44	104.29	-414.11	532.07	117.2	-403.22	466.16	131.23	-449.63	435.83	108.41	-816.63	447.44	406.9	-778	403.9	405.87	-836.49	356.23	392.29	-874.88	396.6	391.35	-500.89	43.934	114.12	-523.83	70.986	144.13	-516.21	42.519	182.87	-1104	290.73	309.58	-1071.3	303.12	281.21	-1080.6	271.63	251.98	-295.88	52.951	232.76	-302.38	48.597	118.45	-245.98	80.057	202.25	-992.92	79.095	261.96	-1044.5	96.658	369.41	-971.36	38.279	319.44
44	0.17974	-539.25	1510.3	413.93	-561.24	1520.5	11.279	-501.4	1828.2	233.32	-460.74	1460.6	219.54	-613.55	1554.7	220.86	-578.5	1097.6	70.17	-566.2	1108.8	405.57	-505.41	1017.4	104.74	-503.28	1007.3	374.76	-602.54	935.23	53.293	-618.91	932.89	417.64	-719.65	1021.1	278.98	-724.59	1020.2	193.29	-733.99	987.53	234.95	-471.31	550.59	90.902	-451.37	566.12	227.81	-659.76	521.61	405.74	-641.74	511.6	268.63	-449.14	111.26	116.41	-459.6	112.81	200.33	-1029.3	244.09	355.1	-980.84	236.8	260.59	-528.17	775.35	60.857	-465.5	789.42	88.335	-450.16	719.09	98.871	-506.13	702.96	72.951	-671.83	792.34	397.17	-613.34	790.04	422.8	-625.35	715.65	417.22	-675.44	718.55	392.84	-460.29	496.63	103.86	-411.29	531.99	116.71	-400.76	466.03	130.77	-447.37	435.95	108.03	-805.44	448.72	407.11	-767.24	404.78	406.12	-826.18	357.63	392.58	-864.18	398.38	391.54	-500.79	44.092	114.14	-523.68	71.167	144.16	-516.09	42.678	182.9	-1094.4	294.94	309.68	-1061.4	306.78	281.28	-1071.1	275.18	252.26	-295.65	52.542	232.63	-302.25	48.104	118.34	-245.66	79.425	202.07	-985.34	81.583	263.61	-1036.9	100.4	370.62	-964.44	40.076	321.27
45	0.18392	-533.93	1511.4	413.64	-555.4	1521.6	11.027	-495.76	1829.1	232.75	-455.4	1461.4	219.35	-608.1	1555.8	220.52	-573.32	1098.5	69.986	-561.32	1109.7	405.46	-500.33	1018.3	104.52	-498.05	1008.5	374.48	-597.6	936.23	53.158	-612.98	933.46	417.52	-714.57	1021.7	278.89	-719.44	1021.1	193.22	-728.84	988.29	234.75	-468.48	550.84	90.479	-448.4	566.36	227.34	-648.49	521.55	405.94	-630.38	511.62	268.72	-448.8	111.3	116.43	-459.2	112.92	200.22	-1020	247.63	355.47	-971.47	239.41	261.07	-524.09	776.19	60.769	-461.18	789.79	88.118	-446.19	719.38	98.549	-502.26	703.59	72.622	-664.05	791.91	397.39	-605.48	790.31	422.84	-616.59	715.79	417.3	-666.8	718.07	393.11	-457.75	496.81	103.47	-408.55	531.91	116.26	-398.37	465.91	130.35	-445.17	436.08	107.68	-794.21	450.05	407.25	-756.41	405.75	406.34	-815.77	359.09	392.84	-853.4	400.18	391.69	-500.7	44.251	114.16	-523.52	71.343	144.2	-515.96	42.829	182.92	-1084.7	298.86	309.73	-1051.5	310.19	281.29	-1061.5	278.46	252.49	-295.43	52.159	232.51	-302.11	47.652	118.24	-245.36	78.831	201.92	-977.28	84.043	265.29	-1028.7	104.09	371.91	-956.88	42.063	323.15
46	0.1881	-528.69	1512.4	413.39	-549.59	1522.6	10.8	-490.11	1830.1	232.2	-450.1	1462.3	219.2	-602.69	1556.9	220.2	-568.14	1099.5	69.803	-556.48	1110.7	405.36	-495.26	1019.2	104.31	-492.88	1009.7	374.23	-592.67	937.23	53.038	-607.1	934.07	417.41	-709.51	1022.2	278.78	-714.32	1022	193.13	-723.72	989.06	234.53	-465.72	551.08	90.1	-445.52	566.59	226.9	-637.23	521.62	406.14	-619.02	511.77	268.8	-448.48	111.35	116.46	-458.82	113.03	200.13	-1010.4	251.05	355.8	-961.91	241.95	261.51	-520.03	777.01	60.697	-456.92	790.15	87.962	-442.28	719.66	98.276	-498.44	704.21	72.333	-656.27	791.57	397.57	-597.66	790.66	422.87	-607.84	716.01	417.38	-658.16	717.69	393.34	-455.27	497	103.12	-405.86	531.84	115.86	-396.04	465.8	129.98	-443.02	436.2	107.37	-782.94	451.43	407.34	-745.53	406.79	406.54	-805.27	360.59	393.09	-842.55	402	391.8	-500.61	44.411	114.18	-523.36	71.516	144.25	-515.84	42.974	182.95	-1074.8	302.49	309.75	-1041.5	313.36	281.24	-1051.8	281.47	252.68	-295.23	51.798	232.41	-301.98	47.237	118.16	-245.07	78.27	201.78	-968.73	86.462	266.97	-1020	107.72	373.27	-948.71	44.21	325.06
47	0.19228	-523.54	1513.4	413.17	-543.82	1523.7	10.596	-484.45	1831.1	231.67	-444.84	1463.2	219.08	-597.31	1558	219.91	-562.97	1100.5	69.623	-551.67	1111.6	405.25	-490.21	1020	104.14	-487.75	1011	374.01	-587.75	938.21	52.934	-601.26	934.72	417.31	-704.47	1022.8	278.66	-709.24	1023	193.02	-718.64	989.85	234.3	-463.02	551.31	89.761	-442.71	566.82	226.5	-626	521.82	406.32	-607.68	512.05	268.88	-448.16	111.41	116.5	-458.46	113.15	200.04	-1000.6	254.34	356.1	-952.15	244.4	261.9	-515.98	777.81	60.626	-452.69	790.5	87.857	-438.42	719.92	98.044	-494.66	704.82	72.081	-648.52	791.3	397.73	-589.89	791.09	422.91	-599.14	716.32	417.45	-649.52	717.39	393.52	-452.85	497.18	102.81	-403.24	531.76	115.49	-393.76	465.7	129.64	-440.92	436.33	107.09	-771.65	452.86	407.37	-734.6	407.91	406.72	-794.69	362.13	393.33	-831.63	403.83	391.87	-500.52	44.572	114.21	-523.19	71.687	144.31	-515.73	43.114	182.98	-1064.9	305.82	309.74	-1031.5	316.27	281.13	-1041.9	284.19	252.84	-295.03	51.459	232.32	-301.85	46.854	118.08	-244.8	77.739	201.66	-959.72	88.824	268.66	-1010.7	111.25	374.68	-939.92	46.485	326.99
48	0.19647	-518.46	1514.5	412.99	-538.09	1524.8	10.417	-478.79	1832	231.16	-439.62	1464	219	-591.97	1559.1	219.63	-557.8	1101.4	69.444	-546.9	1112.7	405.14	-485.17	1020.8	103.98	-482.66	1012.3	373.81	-582.85	939.19	52.845	-595.47	935.41	417.24	-699.45	1023.4	278.53	-704.18	1024	192.89	-713.59	990.65	234.05	-460.37	551.55	89.459	-439.96	567.03	226.14	-614.8	522.16	406.5	-596.36	512.46	268.95	-447.85	111.48	116.55	-458.12	113.27	199.97	-990.56	257.47	356.36	-942.21	246.75	262.25	-511.93	778.58	60.547	-448.51	790.83	87.796	-434.61	720.16	97.845	-490.93	705.41	71.863	-640.78	791.11	397.84	-582.16	791.61	422.95	-590.47	716.73	417.52	-640.9	717.18	393.67	-450.47	497.36	102.53	-400.68	531.69	115.17	-391.54	465.6	129.34	-438.86	436.46	106.84	-760.35	454.32	407.35	-723.62	409.09	406.89	-784.03	363.7	393.55	-820.67	405.66	391.9	-500.43	44.736	114.24	-523.03	71.856	144.37	-515.62	43.25	183.01	-1054.9	308.85	309.71	-1021.4	318.93	280.98	-1032	286.62	252.97	-294.84	51.139	232.24	-301.72	46.501	118.02	-244.54	77.235	201.56	-950.25	91.114	270.33	-1001	114.66	376.13	-930.56	48.851	328.93
